<?xml version="1.0" encoding="UTF-8" standalone="no"?><svg xmlns="http://www.w3.org/2000/svg" xmlns:xlink="http://www.w3.org/1999/xlink" contentStyleType="text/css" height="652px" preserveAspectRatio="none" style="width:1601px;height:652px;background:#FFFFFF;" version="1.1" viewBox="0 0 1601 652" width="1601px" zoomAndPan="magnify"><defs/><g><!--class user--><g id="elem_user"><rect codeLine="3" fill="#F1F1F1" height="162.0781" id="user" rx="2.5" ry="2.5" style="stroke:#181818;stroke-width:0.5;" width="184" x="7" y="316"/><ellipse cx="79.75" cy="332" fill="#ADD1B2" rx="11" ry="11" style="stroke:#181818;stroke-width:1.0;"/><path d="M78.5469,332.875 L80,332.875 L80,332.9844 C80,333.3906 80.0313,333.5469 80.1094,333.7031 C80.2656,333.9531 80.5469,334.1094 80.8438,334.1094 C81.0938,334.1094 81.3594,333.9688 81.5156,333.75 C81.6406,333.5938 81.6719,333.4375 81.6719,332.9844 L81.6719,331.0625 C81.6719,330.9063 81.6719,330.8594 81.6563,330.7031 C81.5938,330.2344 81.2813,329.9219 80.8281,329.9219 C80.5781,329.9219 80.3125,330.0625 80.1406,330.2813 C80.0313,330.4531 80,330.6094 80,331.0625 L80,331.1875 L78.5469,331.1875 L78.5469,328.7813 L82.5313,328.7813 L82.5313,329.6406 C82.5313,330.0469 82.5625,330.2188 82.6406,330.375 C82.8125,330.625 83.0938,330.7813 83.375,330.7813 C83.6406,330.7813 83.9063,330.6406 84.0781,330.4219 C84.1875,330.25 84.2188,330.1094 84.2188,329.6406 L84.2188,327.0938 L76.5938,327.0938 C76.1563,327.0938 76.0313,327.1094 75.875,327.2031 C75.625,327.3594 75.4688,327.6563 75.4688,327.9375 C75.4688,328.2188 75.6094,328.4688 75.8281,328.6406 C75.9844,328.75 76.1719,328.7813 76.5938,328.7813 L76.8438,328.7813 L76.8438,335.2969 L76.5938,335.2969 C76.1875,335.2969 76.0313,335.3125 75.875,335.4219 C75.625,335.5938 75.4688,335.8594 75.4688,336.1563 C75.4688,336.4219 75.6094,336.6719 75.8281,336.8281 C75.9688,336.9531 76.2031,337 76.5938,337 L84.5938,337 L84.5938,334.4219 C84.5938,333.9844 84.5625,333.8438 84.4844,333.6875 C84.3125,333.4375 84.0313,333.2813 83.75,333.2813 C83.4844,333.2813 83.2188,333.3906 83.0469,333.6406 C82.9375,333.7969 82.9063,333.9375 82.9063,334.4219 L82.9063,335.2969 L78.5469,335.2969 L78.5469,332.875 Z " fill="#000000"/><text fill="#000000" font-family="sans-serif" font-size="14" lengthAdjust="spacing" textLength="30" x="100.25" y="336.8467">user</text><line style="stroke:#181818;stroke-width:0.5;" x1="8" x2="190" y1="348" y2="348"/><ellipse cx="18" cy="361.6484" fill="#000000" rx="3" ry="3" style="stroke:#000000;stroke-width:1.0;"/><text fill="#000000" font-family="sans-serif" font-size="14" lengthAdjust="spacing" textLength="94" x="27" y="364.9951">id: UUID «PK»</text><line style="stroke:#181818;stroke-width:1.0;" x1="8" x2="190" y1="372.2969" y2="372.2969"/><ellipse cx="18" cy="385.9453" fill="#000000" rx="3" ry="3" style="stroke:#000000;stroke-width:1.0;"/><text fill="#000000" font-family="sans-serif" font-size="14" lengthAdjust="spacing" textLength="102" x="27" y="389.292">name: varchar</text><ellipse cx="18" cy="402.2422" fill="#000000" rx="3" ry="3" style="stroke:#000000;stroke-width:1.0;"/><text fill="#000000" font-family="sans-serif" font-size="14" lengthAdjust="spacing" textLength="101" x="27" y="405.5889">email: varchar</text><ellipse cx="18" cy="418.5391" fill="#000000" rx="3" ry="3" style="stroke:#000000;stroke-width:1.0;"/><text fill="#000000" font-family="sans-serif" font-size="14" lengthAdjust="spacing" textLength="129" x="27" y="421.8857">password: varchar</text><text fill="#000000" font-family="sans-serif" font-size="14" lengthAdjust="spacing" textLength="131" x="27" y="438.1826">photo_url: varchar</text><ellipse cx="18" cy="451.1328" fill="#000000" rx="3" ry="3" style="stroke:#000000;stroke-width:1.0;"/><text fill="#000000" font-family="sans-serif" font-size="14" lengthAdjust="spacing" textLength="154" x="27" y="454.4795">created_at: datetime</text><ellipse cx="18" cy="467.4297" fill="#000000" rx="3" ry="3" style="stroke:#000000;stroke-width:1.0;"/><text fill="#000000" font-family="sans-serif" font-size="14" lengthAdjust="spacing" textLength="158" x="27" y="470.7764">updated_at: datetime</text></g><!--class course--><g id="elem_course"><rect codeLine="14" fill="#F1F1F1" height="210.9688" id="course" rx="2.5" ry="2.5" style="stroke:#181818;stroke-width:0.5;" width="184" x="635" y="204.5"/><ellipse cx="699.25" cy="220.5" fill="#ADD1B2" rx="11" ry="11" style="stroke:#181818;stroke-width:1.0;"/><path d="M698.0469,221.375 L699.5,221.375 L699.5,221.4844 C699.5,221.8906 699.5313,222.0469 699.6094,222.2031 C699.7656,222.4531 700.0469,222.6094 700.3438,222.6094 C700.5938,222.6094 700.8594,222.4688 701.0156,222.25 C701.1406,222.0938 701.1719,221.9375 701.1719,221.4844 L701.1719,219.5625 C701.1719,219.4063 701.1719,219.3594 701.1563,219.2031 C701.0938,218.7344 700.7813,218.4219 700.3281,218.4219 C700.0781,218.4219 699.8125,218.5625 699.6406,218.7813 C699.5313,218.9531 699.5,219.1094 699.5,219.5625 L699.5,219.6875 L698.0469,219.6875 L698.0469,217.2813 L702.0313,217.2813 L702.0313,218.1406 C702.0313,218.5469 702.0625,218.7188 702.1406,218.875 C702.3125,219.125 702.5938,219.2813 702.875,219.2813 C703.1406,219.2813 703.4063,219.1406 703.5781,218.9219 C703.6875,218.75 703.7188,218.6094 703.7188,218.1406 L703.7188,215.5938 L696.0938,215.5938 C695.6563,215.5938 695.5313,215.6094 695.375,215.7031 C695.125,215.8594 694.9688,216.1563 694.9688,216.4375 C694.9688,216.7188 695.1094,216.9688 695.3281,217.1406 C695.4844,217.25 695.6719,217.2813 696.0938,217.2813 L696.3438,217.2813 L696.3438,223.7969 L696.0938,223.7969 C695.6875,223.7969 695.5313,223.8125 695.375,223.9219 C695.125,224.0938 694.9688,224.3594 694.9688,224.6563 C694.9688,224.9219 695.1094,225.1719 695.3281,225.3281 C695.4688,225.4531 695.7031,225.5 696.0938,225.5 L704.0938,225.5 L704.0938,222.9219 C704.0938,222.4844 704.0625,222.3438 703.9844,222.1875 C703.8125,221.9375 703.5313,221.7813 703.25,221.7813 C702.9844,221.7813 702.7188,221.8906 702.5469,222.1406 C702.4375,222.2969 702.4063,222.4375 702.4063,222.9219 L702.4063,223.7969 L698.0469,223.7969 L698.0469,221.375 Z " fill="#000000"/><text fill="#000000" font-family="sans-serif" font-size="14" lengthAdjust="spacing" textLength="47" x="719.75" y="225.3467">course</text><line style="stroke:#181818;stroke-width:0.5;" x1="636" x2="818" y1="236.5" y2="236.5"/><ellipse cx="646" cy="250.1484" fill="#000000" rx="3" ry="3" style="stroke:#000000;stroke-width:1.0;"/><text fill="#000000" font-family="sans-serif" font-size="14" lengthAdjust="spacing" textLength="94" x="655" y="253.4951">id: UUID «PK»</text><line style="stroke:#181818;stroke-width:1.0;" x1="636" x2="818" y1="260.7969" y2="260.7969"/><ellipse cx="646" cy="274.4453" fill="#000000" rx="3" ry="3" style="stroke:#000000;stroke-width:1.0;"/><text fill="#000000" font-family="sans-serif" font-size="14" lengthAdjust="spacing" textLength="93" x="655" y="277.792">title: varchar</text><ellipse cx="646" cy="290.7422" fill="#000000" rx="3" ry="3" style="stroke:#000000;stroke-width:1.0;"/><text fill="#000000" font-family="sans-serif" font-size="14" lengthAdjust="spacing" textLength="127" x="655" y="294.0889">cover_url: varchar</text><ellipse cx="646" cy="307.0391" fill="#000000" rx="3" ry="3" style="stroke:#000000;stroke-width:1.0;"/><text fill="#000000" font-family="sans-serif" font-size="14" lengthAdjust="spacing" textLength="122" x="655" y="310.3857">description: text</text><ellipse cx="646" cy="323.3359" fill="#000000" rx="3" ry="3" style="stroke:#000000;stroke-width:1.0;"/><text fill="#000000" font-family="sans-serif" font-size="14" lengthAdjust="spacing" textLength="128" x="655" y="326.6826">price_amount: int</text><ellipse cx="646" cy="339.6328" fill="#000000" rx="3" ry="3" style="stroke:#000000;stroke-width:1.0;"/><text fill="#000000" font-family="sans-serif" font-size="14" lengthAdjust="spacing" textLength="130" x="655" y="342.9795">user_id: UUID «FK»</text><text fill="#000000" font-family="sans-serif" font-size="14" lengthAdjust="spacing" textLength="133" x="655" y="359.2764">student_count: int</text><ellipse cx="646" cy="372.2266" fill="#000000" rx="3" ry="3" style="stroke:#000000;stroke-width:1.0;"/><text fill="#000000" font-family="sans-serif" font-size="14" lengthAdjust="spacing" textLength="156" x="655" y="375.5732">is_upcoming: boolean</text><ellipse cx="646" cy="388.5234" fill="#000000" rx="3" ry="3" style="stroke:#000000;stroke-width:1.0;"/><text fill="#000000" font-family="sans-serif" font-size="14" lengthAdjust="spacing" textLength="154" x="655" y="391.8701">created_at: datetime</text><ellipse cx="646" cy="404.8203" fill="#000000" rx="3" ry="3" style="stroke:#000000;stroke-width:1.0;"/><text fill="#000000" font-family="sans-serif" font-size="14" lengthAdjust="spacing" textLength="158" x="655" y="408.167">updated_at: datetime</text></g><!--class lesson_section--><g id="elem_lesson_section"><rect codeLine="28" fill="#F1F1F1" height="113.1875" id="lesson_section" rx="2.5" ry="2.5" style="stroke:#181818;stroke-width:0.5;" width="150" x="1029" y="220.5"/><ellipse cx="1049.85" cy="236.5" fill="#ADD1B2" rx="11" ry="11" style="stroke:#181818;stroke-width:1.0;"/><path d="M1048.6469,237.375 L1050.1,237.375 L1050.1,237.4844 C1050.1,237.8906 1050.1313,238.0469 1050.2094,238.2031 C1050.3656,238.4531 1050.6469,238.6094 1050.9438,238.6094 C1051.1938,238.6094 1051.4594,238.4688 1051.6156,238.25 C1051.7406,238.0938 1051.7719,237.9375 1051.7719,237.4844 L1051.7719,235.5625 C1051.7719,235.4063 1051.7719,235.3594 1051.7563,235.2031 C1051.6938,234.7344 1051.3813,234.4219 1050.9281,234.4219 C1050.6781,234.4219 1050.4125,234.5625 1050.2406,234.7813 C1050.1313,234.9531 1050.1,235.1094 1050.1,235.5625 L1050.1,235.6875 L1048.6469,235.6875 L1048.6469,233.2813 L1052.6313,233.2813 L1052.6313,234.1406 C1052.6313,234.5469 1052.6625,234.7188 1052.7406,234.875 C1052.9125,235.125 1053.1938,235.2813 1053.475,235.2813 C1053.7406,235.2813 1054.0063,235.1406 1054.1781,234.9219 C1054.2875,234.75 1054.3188,234.6094 1054.3188,234.1406 L1054.3188,231.5938 L1046.6938,231.5938 C1046.2563,231.5938 1046.1313,231.6094 1045.975,231.7031 C1045.725,231.8594 1045.5688,232.1563 1045.5688,232.4375 C1045.5688,232.7188 1045.7094,232.9688 1045.9281,233.1406 C1046.0844,233.25 1046.2719,233.2813 1046.6938,233.2813 L1046.9438,233.2813 L1046.9438,239.7969 L1046.6938,239.7969 C1046.2875,239.7969 1046.1313,239.8125 1045.975,239.9219 C1045.725,240.0938 1045.5688,240.3594 1045.5688,240.6563 C1045.5688,240.9219 1045.7094,241.1719 1045.9281,241.3281 C1046.0688,241.4531 1046.3031,241.5 1046.6938,241.5 L1054.6938,241.5 L1054.6938,238.9219 C1054.6938,238.4844 1054.6625,238.3438 1054.5844,238.1875 C1054.4125,237.9375 1054.1313,237.7813 1053.85,237.7813 C1053.5844,237.7813 1053.3188,237.8906 1053.1469,238.1406 C1053.0375,238.2969 1053.0063,238.4375 1053.0063,238.9219 L1053.0063,239.7969 L1048.6469,239.7969 L1048.6469,237.375 Z " fill="#000000"/><text fill="#000000" font-family="sans-serif" font-size="14" lengthAdjust="spacing" textLength="105" x="1065.15" y="241.3467">lesson_section</text><line style="stroke:#181818;stroke-width:0.5;" x1="1030" x2="1178" y1="252.5" y2="252.5"/><ellipse cx="1040" cy="266.1484" fill="#000000" rx="3" ry="3" style="stroke:#000000;stroke-width:1.0;"/><text fill="#000000" font-family="sans-serif" font-size="14" lengthAdjust="spacing" textLength="94" x="1049" y="269.4951">id: UUID «PK»</text><line style="stroke:#181818;stroke-width:1.0;" x1="1030" x2="1178" y1="276.7969" y2="276.7969"/><ellipse cx="1040" cy="290.4453" fill="#000000" rx="3" ry="3" style="stroke:#000000;stroke-width:1.0;"/><text fill="#000000" font-family="sans-serif" font-size="14" lengthAdjust="spacing" textLength="105" x="1049" y="293.792">course_id «FK»</text><ellipse cx="1040" cy="306.7422" fill="#000000" rx="3" ry="3" style="stroke:#000000;stroke-width:1.0;"/><text fill="#000000" font-family="sans-serif" font-size="14" lengthAdjust="spacing" textLength="124" x="1049" y="310.0889">sort_position: int</text><ellipse cx="1040" cy="323.0391" fill="#000000" rx="3" ry="3" style="stroke:#000000;stroke-width:1.0;"/><text fill="#000000" font-family="sans-serif" font-size="14" lengthAdjust="spacing" textLength="93" x="1049" y="326.3857">title: varchar</text></g><!--class lesson--><g id="elem_lesson"><rect codeLine="36" fill="#F1F1F1" height="162.0781" id="lesson" rx="2.5" ry="2.5" style="stroke:#181818;stroke-width:0.5;" width="232" x="1362" y="196"/><ellipse cx="1451.25" cy="212" fill="#ADD1B2" rx="11" ry="11" style="stroke:#181818;stroke-width:1.0;"/><path d="M1450.0469,212.875 L1451.5,212.875 L1451.5,212.9844 C1451.5,213.3906 1451.5313,213.5469 1451.6094,213.7031 C1451.7656,213.9531 1452.0469,214.1094 1452.3438,214.1094 C1452.5938,214.1094 1452.8594,213.9688 1453.0156,213.75 C1453.1406,213.5938 1453.1719,213.4375 1453.1719,212.9844 L1453.1719,211.0625 C1453.1719,210.9063 1453.1719,210.8594 1453.1563,210.7031 C1453.0938,210.2344 1452.7813,209.9219 1452.3281,209.9219 C1452.0781,209.9219 1451.8125,210.0625 1451.6406,210.2813 C1451.5313,210.4531 1451.5,210.6094 1451.5,211.0625 L1451.5,211.1875 L1450.0469,211.1875 L1450.0469,208.7813 L1454.0313,208.7813 L1454.0313,209.6406 C1454.0313,210.0469 1454.0625,210.2188 1454.1406,210.375 C1454.3125,210.625 1454.5938,210.7813 1454.875,210.7813 C1455.1406,210.7813 1455.4063,210.6406 1455.5781,210.4219 C1455.6875,210.25 1455.7188,210.1094 1455.7188,209.6406 L1455.7188,207.0938 L1448.0938,207.0938 C1447.6563,207.0938 1447.5313,207.1094 1447.375,207.2031 C1447.125,207.3594 1446.9688,207.6563 1446.9688,207.9375 C1446.9688,208.2188 1447.1094,208.4688 1447.3281,208.6406 C1447.4844,208.75 1447.6719,208.7813 1448.0938,208.7813 L1448.3438,208.7813 L1448.3438,215.2969 L1448.0938,215.2969 C1447.6875,215.2969 1447.5313,215.3125 1447.375,215.4219 C1447.125,215.5938 1446.9688,215.8594 1446.9688,216.1563 C1446.9688,216.4219 1447.1094,216.6719 1447.3281,216.8281 C1447.4688,216.9531 1447.7031,217 1448.0938,217 L1456.0938,217 L1456.0938,214.4219 C1456.0938,213.9844 1456.0625,213.8438 1455.9844,213.6875 C1455.8125,213.4375 1455.5313,213.2813 1455.25,213.2813 C1454.9844,213.2813 1454.7188,213.3906 1454.5469,213.6406 C1454.4375,213.7969 1454.4063,213.9375 1454.4063,214.4219 L1454.4063,215.2969 L1450.0469,215.2969 L1450.0469,212.875 Z " fill="#000000"/><text fill="#000000" font-family="sans-serif" font-size="14" lengthAdjust="spacing" textLength="45" x="1471.75" y="216.8467">lesson</text><line style="stroke:#181818;stroke-width:0.5;" x1="1363" x2="1593" y1="228" y2="228"/><ellipse cx="1373" cy="241.6484" fill="#000000" rx="3" ry="3" style="stroke:#000000;stroke-width:1.0;"/><text fill="#000000" font-family="sans-serif" font-size="14" lengthAdjust="spacing" textLength="94" x="1382" y="244.9951">id: UUID «PK»</text><line style="stroke:#181818;stroke-width:1.0;" x1="1363" x2="1593" y1="252.2969" y2="252.2969"/><ellipse cx="1373" cy="265.9453" fill="#000000" rx="3" ry="3" style="stroke:#000000;stroke-width:1.0;"/><text fill="#000000" font-family="sans-serif" font-size="14" lengthAdjust="spacing" textLength="124" x="1382" y="269.292">sort_position: int</text><ellipse cx="1373" cy="282.2422" fill="#000000" rx="3" ry="3" style="stroke:#000000;stroke-width:1.0;"/><text fill="#000000" font-family="sans-serif" font-size="14" lengthAdjust="spacing" textLength="153" x="1382" y="285.5889">section_id: UUID «FK»</text><ellipse cx="1373" cy="298.5391" fill="#000000" rx="3" ry="3" style="stroke:#000000;stroke-width:1.0;"/><text fill="#000000" font-family="sans-serif" font-size="14" lengthAdjust="spacing" textLength="90" x="1382" y="301.8857">slug: varchar</text><ellipse cx="1373" cy="314.8359" fill="#000000" rx="3" ry="3" style="stroke:#000000;stroke-width:1.0;"/><text fill="#000000" font-family="sans-serif" font-size="14" lengthAdjust="spacing" textLength="93" x="1382" y="318.1826">title: varchar</text><ellipse cx="1373" cy="331.1328" fill="#000000" rx="3" ry="3" style="stroke:#000000;stroke-width:1.0;"/><text fill="#000000" font-family="sans-serif" font-size="14" lengthAdjust="spacing" textLength="206" x="1382" y="334.4795">type: Enum('Article', 'Video')</text><text fill="#000000" font-family="sans-serif" font-size="14" lengthAdjust="spacing" textLength="58" x="1382" y="350.7764">content</text></g><!--class course_progress--><g id="elem_course_progress"><rect codeLine="47" fill="#F1F1F1" height="194.6719" id="course_progress" rx="2.5" ry="2.5" style="stroke:#181818;stroke-width:0.5;" width="199" x="277" y="149.5"/><ellipse cx="314.5" cy="165.5" fill="#ADD1B2" rx="11" ry="11" style="stroke:#181818;stroke-width:1.0;"/><path d="M313.2969,166.375 L314.75,166.375 L314.75,166.4844 C314.75,166.8906 314.7813,167.0469 314.8594,167.2031 C315.0156,167.4531 315.2969,167.6094 315.5938,167.6094 C315.8438,167.6094 316.1094,167.4688 316.2656,167.25 C316.3906,167.0938 316.4219,166.9375 316.4219,166.4844 L316.4219,164.5625 C316.4219,164.4063 316.4219,164.3594 316.4063,164.2031 C316.3438,163.7344 316.0313,163.4219 315.5781,163.4219 C315.3281,163.4219 315.0625,163.5625 314.8906,163.7813 C314.7813,163.9531 314.75,164.1094 314.75,164.5625 L314.75,164.6875 L313.2969,164.6875 L313.2969,162.2813 L317.2813,162.2813 L317.2813,163.1406 C317.2813,163.5469 317.3125,163.7188 317.3906,163.875 C317.5625,164.125 317.8438,164.2813 318.125,164.2813 C318.3906,164.2813 318.6563,164.1406 318.8281,163.9219 C318.9375,163.75 318.9688,163.6094 318.9688,163.1406 L318.9688,160.5938 L311.3438,160.5938 C310.9063,160.5938 310.7813,160.6094 310.625,160.7031 C310.375,160.8594 310.2188,161.1563 310.2188,161.4375 C310.2188,161.7188 310.3594,161.9688 310.5781,162.1406 C310.7344,162.25 310.9219,162.2813 311.3438,162.2813 L311.5938,162.2813 L311.5938,168.7969 L311.3438,168.7969 C310.9375,168.7969 310.7813,168.8125 310.625,168.9219 C310.375,169.0938 310.2188,169.3594 310.2188,169.6563 C310.2188,169.9219 310.3594,170.1719 310.5781,170.3281 C310.7188,170.4531 310.9531,170.5 311.3438,170.5 L319.3438,170.5 L319.3438,167.9219 C319.3438,167.4844 319.3125,167.3438 319.2344,167.1875 C319.0625,166.9375 318.7813,166.7813 318.5,166.7813 C318.2344,166.7813 317.9688,166.8906 317.7969,167.1406 C317.6875,167.2969 317.6563,167.4375 317.6563,167.9219 L317.6563,168.7969 L313.2969,168.7969 L313.2969,166.375 Z " fill="#000000"/><text fill="#000000" font-family="sans-serif" font-size="14" lengthAdjust="spacing" textLength="117" x="333.5" y="170.3467">course_progress</text><line style="stroke:#181818;stroke-width:0.5;" x1="278" x2="475" y1="181.5" y2="181.5"/><ellipse cx="288" cy="195.1484" fill="#000000" rx="3" ry="3" style="stroke:#000000;stroke-width:1.0;"/><text fill="#000000" font-family="sans-serif" font-size="14" lengthAdjust="spacing" textLength="94" x="297" y="198.4951">id: UUID «PK»</text><line style="stroke:#181818;stroke-width:1.0;" x1="278" x2="475" y1="205.7969" y2="205.7969"/><ellipse cx="288" cy="219.4453" fill="#000000" rx="3" ry="3" style="stroke:#000000;stroke-width:1.0;"/><text fill="#000000" font-family="sans-serif" font-size="14" lengthAdjust="spacing" textLength="146" x="297" y="222.792">completed: boolean</text><ellipse cx="288" cy="235.7422" fill="#000000" rx="3" ry="3" style="stroke:#000000;stroke-width:1.0;"/><text fill="#000000" font-family="sans-serif" font-size="14" lengthAdjust="spacing" textLength="173" x="297" y="239.0889">completed_percent: int</text><ellipse cx="288" cy="252.0391" fill="#000000" rx="3" ry="3" style="stroke:#000000;stroke-width:1.0;"/><text fill="#000000" font-family="sans-serif" font-size="14" lengthAdjust="spacing" textLength="147" x="297" y="255.3857">course_id: UUID «FK»</text><ellipse cx="288" cy="268.3359" fill="#000000" rx="3" ry="3" style="stroke:#000000;stroke-width:1.0;"/><text fill="#000000" font-family="sans-serif" font-size="14" lengthAdjust="spacing" textLength="130" x="297" y="271.6826">user_id: UUID «FK»</text><ellipse cx="288" cy="284.6328" fill="#000000" rx="3" ry="3" style="stroke:#000000;stroke-width:1.0;"/><text fill="#000000" font-family="sans-serif" font-size="14" lengthAdjust="spacing" textLength="105" x="297" y="287.9795">next_lesson_id</text><ellipse cx="288" cy="300.9297" fill="#000000" rx="3" ry="3" style="stroke:#000000;stroke-width:1.0;"/><text fill="#000000" font-family="sans-serif" font-size="14" lengthAdjust="spacing" textLength="120" x="297" y="304.2764">next_lesson_slug</text><ellipse cx="288" cy="317.2266" fill="#000000" rx="3" ry="3" style="stroke:#000000;stroke-width:1.0;"/><text fill="#000000" font-family="sans-serif" font-size="14" lengthAdjust="spacing" textLength="154" x="297" y="320.5732">created_at: datetime</text><ellipse cx="288" cy="333.5234" fill="#000000" rx="3" ry="3" style="stroke:#000000;stroke-width:1.0;"/><text fill="#000000" font-family="sans-serif" font-size="14" lengthAdjust="spacing" textLength="158" x="297" y="336.8701">updated_at: datetime</text></g><!--class enrolled_course--><g id="elem_enrolled_course"><rect codeLine="60" fill="#F1F1F1" height="113.1875" id="enrolled_course" rx="2.5" ry="2.5" style="stroke:#181818;stroke-width:0.5;" width="180" x="1014" y="368.5"/><ellipse cx="1044.75" cy="384.5" fill="#ADD1B2" rx="11" ry="11" style="stroke:#181818;stroke-width:1.0;"/><path d="M1043.5469,385.375 L1045,385.375 L1045,385.4844 C1045,385.8906 1045.0313,386.0469 1045.1094,386.2031 C1045.2656,386.4531 1045.5469,386.6094 1045.8438,386.6094 C1046.0938,386.6094 1046.3594,386.4688 1046.5156,386.25 C1046.6406,386.0938 1046.6719,385.9375 1046.6719,385.4844 L1046.6719,383.5625 C1046.6719,383.4063 1046.6719,383.3594 1046.6563,383.2031 C1046.5938,382.7344 1046.2813,382.4219 1045.8281,382.4219 C1045.5781,382.4219 1045.3125,382.5625 1045.1406,382.7813 C1045.0313,382.9531 1045,383.1094 1045,383.5625 L1045,383.6875 L1043.5469,383.6875 L1043.5469,381.2813 L1047.5313,381.2813 L1047.5313,382.1406 C1047.5313,382.5469 1047.5625,382.7188 1047.6406,382.875 C1047.8125,383.125 1048.0938,383.2813 1048.375,383.2813 C1048.6406,383.2813 1048.9063,383.1406 1049.0781,382.9219 C1049.1875,382.75 1049.2188,382.6094 1049.2188,382.1406 L1049.2188,379.5938 L1041.5938,379.5938 C1041.1563,379.5938 1041.0313,379.6094 1040.875,379.7031 C1040.625,379.8594 1040.4688,380.1563 1040.4688,380.4375 C1040.4688,380.7188 1040.6094,380.9688 1040.8281,381.1406 C1040.9844,381.25 1041.1719,381.2813 1041.5938,381.2813 L1041.8438,381.2813 L1041.8438,387.7969 L1041.5938,387.7969 C1041.1875,387.7969 1041.0313,387.8125 1040.875,387.9219 C1040.625,388.0938 1040.4688,388.3594 1040.4688,388.6563 C1040.4688,388.9219 1040.6094,389.1719 1040.8281,389.3281 C1040.9688,389.4531 1041.2031,389.5 1041.5938,389.5 L1049.5938,389.5 L1049.5938,386.9219 C1049.5938,386.4844 1049.5625,386.3438 1049.4844,386.1875 C1049.3125,385.9375 1049.0313,385.7813 1048.75,385.7813 C1048.4844,385.7813 1048.2188,385.8906 1048.0469,386.1406 C1047.9375,386.2969 1047.9063,386.4375 1047.9063,386.9219 L1047.9063,387.7969 L1043.5469,387.7969 L1043.5469,385.375 Z " fill="#000000"/><text fill="#000000" font-family="sans-serif" font-size="14" lengthAdjust="spacing" textLength="113" x="1062.25" y="389.3467">enrolled_course</text><line style="stroke:#181818;stroke-width:0.5;" x1="1015" x2="1193" y1="400.5" y2="400.5"/><ellipse cx="1025" cy="414.1484" fill="#000000" rx="3" ry="3" style="stroke:#000000;stroke-width:1.0;"/><text fill="#000000" font-family="sans-serif" font-size="14" lengthAdjust="spacing" textLength="94" x="1034" y="417.4951">id: UUID «PK»</text><line style="stroke:#181818;stroke-width:1.0;" x1="1015" x2="1193" y1="424.7969" y2="424.7969"/><ellipse cx="1025" cy="438.4453" fill="#000000" rx="3" ry="3" style="stroke:#000000;stroke-width:1.0;"/><text fill="#000000" font-family="sans-serif" font-size="14" lengthAdjust="spacing" textLength="130" x="1034" y="441.792">user_id: UUID «FK»</text><ellipse cx="1025" cy="454.7422" fill="#000000" rx="3" ry="3" style="stroke:#000000;stroke-width:1.0;"/><text fill="#000000" font-family="sans-serif" font-size="14" lengthAdjust="spacing" textLength="147" x="1034" y="458.0889">course_id: UUID «FK»</text><ellipse cx="1025" cy="471.0391" fill="#000000" rx="3" ry="3" style="stroke:#000000;stroke-width:1.0;"/><text fill="#000000" font-family="sans-serif" font-size="14" lengthAdjust="spacing" textLength="154" x="1034" y="474.3857">created_at: datetime</text></g><!--class transaction--><g id="elem_transaction"><rect codeLine="68" fill="#F1F1F1" height="178.375" id="transaction" rx="2.5" ry="2.5" style="stroke:#181818;stroke-width:0.5;" width="344" x="932" y="7"/><ellipse cx="1058.75" cy="23" fill="#ADD1B2" rx="11" ry="11" style="stroke:#181818;stroke-width:1.0;"/><path d="M1057.5469,23.875 L1059,23.875 L1059,23.9844 C1059,24.3906 1059.0313,24.5469 1059.1094,24.7031 C1059.2656,24.9531 1059.5469,25.1094 1059.8438,25.1094 C1060.0938,25.1094 1060.3594,24.9688 1060.5156,24.75 C1060.6406,24.5938 1060.6719,24.4375 1060.6719,23.9844 L1060.6719,22.0625 C1060.6719,21.9063 1060.6719,21.8594 1060.6563,21.7031 C1060.5938,21.2344 1060.2813,20.9219 1059.8281,20.9219 C1059.5781,20.9219 1059.3125,21.0625 1059.1406,21.2813 C1059.0313,21.4531 1059,21.6094 1059,22.0625 L1059,22.1875 L1057.5469,22.1875 L1057.5469,19.7813 L1061.5313,19.7813 L1061.5313,20.6406 C1061.5313,21.0469 1061.5625,21.2188 1061.6406,21.375 C1061.8125,21.625 1062.0938,21.7813 1062.375,21.7813 C1062.6406,21.7813 1062.9063,21.6406 1063.0781,21.4219 C1063.1875,21.25 1063.2188,21.1094 1063.2188,20.6406 L1063.2188,18.0938 L1055.5938,18.0938 C1055.1563,18.0938 1055.0313,18.1094 1054.875,18.2031 C1054.625,18.3594 1054.4688,18.6563 1054.4688,18.9375 C1054.4688,19.2188 1054.6094,19.4688 1054.8281,19.6406 C1054.9844,19.75 1055.1719,19.7813 1055.5938,19.7813 L1055.8438,19.7813 L1055.8438,26.2969 L1055.5938,26.2969 C1055.1875,26.2969 1055.0313,26.3125 1054.875,26.4219 C1054.625,26.5938 1054.4688,26.8594 1054.4688,27.1563 C1054.4688,27.4219 1054.6094,27.6719 1054.8281,27.8281 C1054.9688,27.9531 1055.2031,28 1055.5938,28 L1063.5938,28 L1063.5938,25.4219 C1063.5938,24.9844 1063.5625,24.8438 1063.4844,24.6875 C1063.3125,24.4375 1063.0313,24.2813 1062.75,24.2813 C1062.4844,24.2813 1062.2188,24.3906 1062.0469,24.6406 C1061.9375,24.7969 1061.9063,24.9375 1061.9063,25.4219 L1061.9063,26.2969 L1057.5469,26.2969 L1057.5469,23.875 Z " fill="#000000"/><text fill="#000000" font-family="sans-serif" font-size="14" lengthAdjust="spacing" textLength="82" x="1079.25" y="27.8467">transaction</text><line style="stroke:#181818;stroke-width:0.5;" x1="933" x2="1275" y1="39" y2="39"/><ellipse cx="943" cy="52.6484" fill="#000000" rx="3" ry="3" style="stroke:#000000;stroke-width:1.0;"/><text fill="#000000" font-family="sans-serif" font-size="14" lengthAdjust="spacing" textLength="94" x="952" y="55.9951">id: UUID «PK»</text><line style="stroke:#181818;stroke-width:1.0;" x1="933" x2="1275" y1="63.2969" y2="63.2969"/><ellipse cx="943" cy="76.9453" fill="#000000" rx="3" ry="3" style="stroke:#000000;stroke-width:1.0;"/><text fill="#000000" font-family="sans-serif" font-size="14" lengthAdjust="spacing" textLength="155" x="952" y="80.292">invoice_code: varchar</text><ellipse cx="943" cy="93.2422" fill="#000000" rx="3" ry="3" style="stroke:#000000;stroke-width:1.0;"/><text fill="#000000" font-family="sans-serif" font-size="14" lengthAdjust="spacing" textLength="162" x="952" y="96.5889">total_amount: number</text><ellipse cx="943" cy="109.5391" fill="#000000" rx="3" ry="3" style="stroke:#000000;stroke-width:1.0;"/><text fill="#000000" font-family="sans-serif" font-size="14" lengthAdjust="spacing" textLength="318" x="952" y="112.8857">status: ENUM('PENDING', 'PAID', 'CANCELED')</text><ellipse cx="943" cy="125.8359" fill="#000000" rx="3" ry="3" style="stroke:#000000;stroke-width:1.0;"/><text fill="#000000" font-family="sans-serif" font-size="14" lengthAdjust="spacing" textLength="130" x="952" y="129.1826">user_id: UUID «FK»</text><ellipse cx="943" cy="142.1328" fill="#000000" rx="3" ry="3" style="stroke:#000000;stroke-width:1.0;"/><text fill="#000000" font-family="sans-serif" font-size="14" lengthAdjust="spacing" textLength="147" x="952" y="145.4795">course_id: UUID «FK»</text><ellipse cx="943" cy="158.4297" fill="#000000" rx="3" ry="3" style="stroke:#000000;stroke-width:1.0;"/><text fill="#000000" font-family="sans-serif" font-size="14" lengthAdjust="spacing" textLength="154" x="952" y="161.7764">created_at: datetime</text><ellipse cx="943" cy="174.7266" fill="#000000" rx="3" ry="3" style="stroke:#000000;stroke-width:1.0;"/><text fill="#000000" font-family="sans-serif" font-size="14" lengthAdjust="spacing" textLength="158" x="952" y="178.0732">updated_at: datetime</text></g><!--class certificate--><g id="elem_certificate"><rect codeLine="80" fill="#F1F1F1" height="129.4844" id="certificate" rx="2.5" ry="2.5" style="stroke:#181818;stroke-width:0.5;" width="180" x="1014" y="516.5"/><ellipse cx="1061.75" cy="532.5" fill="#ADD1B2" rx="11" ry="11" style="stroke:#181818;stroke-width:1.0;"/><path d="M1060.5469,533.375 L1062,533.375 L1062,533.4844 C1062,533.8906 1062.0313,534.0469 1062.1094,534.2031 C1062.2656,534.4531 1062.5469,534.6094 1062.8438,534.6094 C1063.0938,534.6094 1063.3594,534.4688 1063.5156,534.25 C1063.6406,534.0938 1063.6719,533.9375 1063.6719,533.4844 L1063.6719,531.5625 C1063.6719,531.4063 1063.6719,531.3594 1063.6563,531.2031 C1063.5938,530.7344 1063.2813,530.4219 1062.8281,530.4219 C1062.5781,530.4219 1062.3125,530.5625 1062.1406,530.7813 C1062.0313,530.9531 1062,531.1094 1062,531.5625 L1062,531.6875 L1060.5469,531.6875 L1060.5469,529.2813 L1064.5313,529.2813 L1064.5313,530.1406 C1064.5313,530.5469 1064.5625,530.7188 1064.6406,530.875 C1064.8125,531.125 1065.0938,531.2813 1065.375,531.2813 C1065.6406,531.2813 1065.9063,531.1406 1066.0781,530.9219 C1066.1875,530.75 1066.2188,530.6094 1066.2188,530.1406 L1066.2188,527.5938 L1058.5938,527.5938 C1058.1563,527.5938 1058.0313,527.6094 1057.875,527.7031 C1057.625,527.8594 1057.4688,528.1563 1057.4688,528.4375 C1057.4688,528.7188 1057.6094,528.9688 1057.8281,529.1406 C1057.9844,529.25 1058.1719,529.2813 1058.5938,529.2813 L1058.8438,529.2813 L1058.8438,535.7969 L1058.5938,535.7969 C1058.1875,535.7969 1058.0313,535.8125 1057.875,535.9219 C1057.625,536.0938 1057.4688,536.3594 1057.4688,536.6563 C1057.4688,536.9219 1057.6094,537.1719 1057.8281,537.3281 C1057.9688,537.4531 1058.2031,537.5 1058.5938,537.5 L1066.5938,537.5 L1066.5938,534.9219 C1066.5938,534.4844 1066.5625,534.3438 1066.4844,534.1875 C1066.3125,533.9375 1066.0313,533.7813 1065.75,533.7813 C1065.4844,533.7813 1065.2188,533.8906 1065.0469,534.1406 C1064.9375,534.2969 1064.9063,534.4375 1064.9063,534.9219 L1064.9063,535.7969 L1060.5469,535.7969 L1060.5469,533.375 Z " fill="#000000"/><text fill="#000000" font-family="sans-serif" font-size="14" lengthAdjust="spacing" textLength="76" x="1082.25" y="537.3467">certificate</text><line style="stroke:#181818;stroke-width:0.5;" x1="1015" x2="1193" y1="548.5" y2="548.5"/><ellipse cx="1025" cy="562.1484" fill="#000000" rx="3" ry="3" style="stroke:#000000;stroke-width:1.0;"/><text fill="#000000" font-family="sans-serif" font-size="14" lengthAdjust="spacing" textLength="94" x="1034" y="565.4951">id: UUID «PK»</text><line style="stroke:#181818;stroke-width:1.0;" x1="1015" x2="1193" y1="572.7969" y2="572.7969"/><ellipse cx="1025" cy="586.4453" fill="#000000" rx="3" ry="3" style="stroke:#000000;stroke-width:1.0;"/><text fill="#000000" font-family="sans-serif" font-size="14" lengthAdjust="spacing" textLength="130" x="1034" y="589.792">user_id: UUID «FK»</text><ellipse cx="1025" cy="602.7422" fill="#000000" rx="3" ry="3" style="stroke:#000000;stroke-width:1.0;"/><text fill="#000000" font-family="sans-serif" font-size="14" lengthAdjust="spacing" textLength="147" x="1034" y="606.0889">course_id: UUID «FK»</text><ellipse cx="1025" cy="619.0391" fill="#000000" rx="3" ry="3" style="stroke:#000000;stroke-width:1.0;"/><text fill="#000000" font-family="sans-serif" font-size="14" lengthAdjust="spacing" textLength="128" x="1034" y="622.3857">experied_at: date</text><ellipse cx="1025" cy="635.3359" fill="#000000" rx="3" ry="3" style="stroke:#000000;stroke-width:1.0;"/><text fill="#000000" font-family="sans-serif" font-size="14" lengthAdjust="spacing" textLength="154" x="1034" y="638.6826">created_at: datetime</text></g><!--link user to course--><g id="link_user_course"><path codeLine="89" d="M199.568,398.212 C275.716,397.698 383.071,393.86 476,379 C526.54,370.918 581.489,356.409 626.967,342.774 " fill="none" id="user-course" style="stroke:#181818;stroke-width:1.0;stroke-dasharray:7.0,7.0;"/><line style="stroke:#181818;stroke-width:1.0;" x1="195.3924" x2="195.3495" y1="402.2335" y2="394.2336"/><line style="stroke:#181818;stroke-width:1.0;" x1="198.3923" x2="198.3495" y1="402.2174" y2="394.2176"/><line style="stroke:#181818;stroke-width:1.0;" x1="199.3709" x2="191.371" y1="398.2121" y2="398.255"/><line style="stroke:#181818;stroke-width:1.0;" x1="627.104" x2="633.0264" y1="342.7321" y2="334.6745"/><line style="stroke:#181818;stroke-width:1.0;" x1="627.104" x2="636.4976" y1="342.7321" y2="346.1615"/><line style="stroke:#181818;stroke-width:1.0;" x1="627.104" x2="634.762" y1="342.7321" y2="340.418"/><ellipse cx="621.3605" cy="344.4677" fill="none" rx="4" ry="4" style="stroke:#181818;stroke-width:1.0;"/><text fill="#000000" font-family="sans-serif" font-size="13" lengthAdjust="spacing" textLength="43" x="355" y="375.0669">Craete</text></g><!--link user to course_progress--><g id="link_user_course_progress"><path codeLine="90" d="M198.48,343.381 C221.55,330.82 246.223,317.387 269.602,304.658 " fill="none" id="user-course_progress" style="stroke:#181818;stroke-width:1.0;stroke-dasharray:7.0,7.0;"/><line style="stroke:#181818;stroke-width:1.0;" x1="196.7809" x2="192.955" y1="348.861" y2="341.8351"/><line style="stroke:#181818;stroke-width:1.0;" x1="199.4156" x2="195.5898" y1="347.4264" y2="340.4005"/><line style="stroke:#181818;stroke-width:1.0;" x1="198.3809" x2="191.355" y1="343.4352" y2="347.261"/><line style="stroke:#181818;stroke-width:1.0;" x1="269.7865" x2="273.9445" y1="304.5567" y2="295.4621"/><line style="stroke:#181818;stroke-width:1.0;" x1="269.7865" x2="279.6815" y1="304.5567" y2="306.0019"/><line style="stroke:#181818;stroke-width:1.0;" x1="269.7865" x2="276.813" y1="304.5567" y2="300.732"/><ellipse cx="264.5166" cy="307.4252" fill="none" rx="4" ry="4" style="stroke:#181818;stroke-width:1.0;"/><text fill="#000000" font-family="sans-serif" font-size="13" lengthAdjust="spacing" textLength="24" x="222" y="313.0669">Has</text></g><!--link course_progress to course--><g id="link_course_progress_course"><path codeLine="91" d="M484.395,266.324 C529.806,274.533 582.431,284.046 626.952,292.095 " fill="none" id="course_progress-course" style="stroke:#181818;stroke-width:1.0;stroke-dasharray:7.0,7.0;"/><line style="stroke:#181818;stroke-width:1.0;" x1="484.3064" x2="475.3667" y1="266.308" y2="270.7893"/><line style="stroke:#181818;stroke-width:1.0;" x1="484.3064" x2="477.5013" y1="266.308" y2="258.9807"/><line style="stroke:#181818;stroke-width:1.0;" x1="484.3064" x2="476.434" y1="266.308" y2="264.885"/><line style="stroke:#181818;stroke-width:1.0;" x1="485.563" x2="486.986" y1="270.6" y2="262.7276"/><line style="stroke:#181818;stroke-width:1.0;" x1="631.6552" x2="630.2324" y1="288.8804" y2="296.7528"/><line style="stroke:#181818;stroke-width:1.0;" x1="628.703" x2="627.2802" y1="288.3468" y2="296.2193"/><line style="stroke:#181818;stroke-width:1.0;" x1="627.0075" x2="634.88" y1="292.1052" y2="293.528"/><text fill="#000000" font-family="sans-serif" font-size="13" lengthAdjust="spacing" textLength="24" x="543.5" y="267.0669">Has</text></g><!--link course to lesson_section--><g id="link_course_lesson_section"><path codeLine="92" d="M827.28,301.263 C887.622,295.953 963.752,289.254 1020.72,284.241 " fill="none" id="course-lesson_section" style="stroke:#181818;stroke-width:1.0;stroke-dasharray:7.0,7.0;"/><line style="stroke:#181818;stroke-width:1.0;" x1="823.5907" x2="822.8906" y1="305.6036" y2="297.6343"/><line style="stroke:#181818;stroke-width:1.0;" x1="826.5792" x2="825.8791" y1="305.3411" y2="297.3718"/><line style="stroke:#181818;stroke-width:1.0;" x1="827.2253" x2="819.256" y1="301.2689" y2="301.969"/><line style="stroke:#181818;stroke-width:1.0;" x1="1021.0107" x2="1028.455" y1="284.2141" y2="277.537"/><line style="stroke:#181818;stroke-width:1.0;" x1="1021.0107" x2="1029.505" y1="284.2141" y2="289.491"/><line style="stroke:#181818;stroke-width:1.0;" x1="1021.0107" x2="1028.98" y1="284.2141" y2="283.514"/><line style="stroke:#181818;stroke-width:1.0;" x1="1018.6683" x2="1019.3684" y1="280.4044" y2="288.3737"/><text fill="#000000" font-family="sans-serif" font-size="13" lengthAdjust="spacing" textLength="24" x="863.5" y="291.0669">Has</text></g><!--link lesson_section to lesson--><g id="link_lesson_section_lesson"><path codeLine="93" d="M1187.47,277 C1236.2,277 1298.84,277 1353.38,277 " fill="none" id="lesson_section-lesson" style="stroke:#181818;stroke-width:1.0;stroke-dasharray:7.0,7.0;"/><line style="stroke:#181818;stroke-width:1.0;" x1="1183.39" x2="1183.39" y1="281" y2="273"/><line style="stroke:#181818;stroke-width:1.0;" x1="1186.39" x2="1186.39" y1="281" y2="273"/><line style="stroke:#181818;stroke-width:1.0;" x1="1187.39" x2="1179.39" y1="277" y2="277"/><line style="stroke:#181818;stroke-width:1.0;" x1="1353.71" x2="1361.71" y1="277" y2="271"/><line style="stroke:#181818;stroke-width:1.0;" x1="1353.71" x2="1361.71" y1="277" y2="283"/><line style="stroke:#181818;stroke-width:1.0;" x1="1353.71" x2="1361.71" y1="277" y2="277"/><line style="stroke:#181818;stroke-width:1.0;" x1="1351.71" x2="1351.71" y1="273" y2="281"/><text fill="#000000" font-family="sans-serif" font-size="13" lengthAdjust="spacing" textLength="24" x="1307" y="273.0669">Has</text></g><!--link user to enrolled_course--><g id="link_user_enrolled_course"><path codeLine="94" d="M199.16,416.36 C350.71,443.416 649.022,486.703 902,463 C936.064,459.808 972.954,453.638 1005.72,447.182 " fill="none" id="user-enrolled_course" style="stroke:#181818;stroke-width:1.0;stroke-dasharray:7.0,7.0;"/><line style="stroke:#181818;stroke-width:1.0;" x1="194.3967" x2="195.8112" y1="419.5672" y2="411.6933"/><line style="stroke:#181818;stroke-width:1.0;" x1="197.3495" x2="198.764" y1="420.0977" y2="412.2237"/><line style="stroke:#181818;stroke-width:1.0;" x1="199.041" x2="191.167" y1="416.3375" y2="414.923"/><line style="stroke:#181818;stroke-width:1.0;" x1="1006.115" x2="1012.7845" y1="447.1033" y2="439.6523"/><line style="stroke:#181818;stroke-width:1.0;" x1="1006.115" x2="1015.1355" y1="447.1033" y2="451.4197"/><line style="stroke:#181818;stroke-width:1.0;" x1="1006.115" x2="1013.96" y1="447.1033" y2="445.536"/><ellipse cx="1000.2313" cy="448.2787" fill="none" rx="4" ry="4" style="stroke:#181818;stroke-width:1.0;"/><text fill="#000000" font-family="sans-serif" font-size="13" lengthAdjust="spacing" textLength="35" x="538" y="454.0669">Enroll</text></g><!--link course to enrolled_course--><g id="link_course_enrolled_course"><path codeLine="95" d="M826.27,340.136 C882.025,357.234 951.508,378.542 1006.901,395.53 " fill="none" id="course-enrolled_course" style="stroke:#181818;stroke-width:1.0;stroke-dasharray:7.0,7.0;"/><line style="stroke:#181818;stroke-width:1.0;" x1="821.9072" x2="824.2531" y1="342.9821" y2="335.3338"/><line style="stroke:#181818;stroke-width:1.0;" x1="824.7753" x2="827.1212" y1="343.8618" y2="336.2135"/><line style="stroke:#181818;stroke-width:1.0;" x1="826.9043" x2="819.256" y1="340.3309" y2="337.985"/><line style="stroke:#181818;stroke-width:1.0;" x1="1011.2739" x2="1008.9355" y1="392.6905" y2="400.3411"/><line style="stroke:#181818;stroke-width:1.0;" x1="1008.405" x2="1006.0665" y1="391.8136" y2="399.4642"/><line style="stroke:#181818;stroke-width:1.0;" x1="1006.2794" x2="1013.93" y1="395.3465" y2="397.685"/><text fill="#000000" font-family="sans-serif" font-size="13" lengthAdjust="spacing" textLength="51" x="850" y="343.0669">Enrolled</text></g><!--link user to transaction--><g id="link_user_transaction"><path codeLine="96" d="M133.612,308.43 C161.902,247.313 208.782,170.404 277,132 C476.255,19.827 747.374,33.318 923.763,59.515 " fill="none" id="user-transaction" style="stroke:#181818;stroke-width:1.0;stroke-dasharray:7.0,7.0;"/><line style="stroke:#181818;stroke-width:1.0;" x1="135.5515" x2="128.2716" y1="313.8196" y2="310.5025"/><line style="stroke:#181818;stroke-width:1.0;" x1="136.7954" x2="129.5155" y1="311.0896" y2="307.7725"/><line style="stroke:#181818;stroke-width:1.0;" x1="133.5701" x2="130.253" y1="308.5211" y2="315.801"/><line style="stroke:#181818;stroke-width:1.0;" x1="923.9187" x2="932.7248" y1="59.5367" y2="54.7982"/><line style="stroke:#181818;stroke-width:1.0;" x1="923.9187" x2="930.9332" y1="59.5367" y2="66.6638"/><line style="stroke:#181818;stroke-width:1.0;" x1="923.9187" x2="931.829" y1="59.5367" y2="60.731"/><ellipse cx="917.9859" cy="58.6409" fill="none" rx="4" ry="4" style="stroke:#181818;stroke-width:1.0;"/><text fill="#000000" font-family="sans-serif" font-size="13" lengthAdjust="spacing" textLength="97" x="507" y="41.0669">pay enrollment</text></g><!--link course to transaction--><g id="link_course_transaction"><path codeLine="97" d="M826.535,253.769 C861.183,233.997 901.106,211.214 939.646,189.221 " fill="none" id="course-transaction" style="stroke:#181818;stroke-width:1.0;stroke-dasharray:7.0,7.0;"/><line style="stroke:#181818;stroke-width:1.0;" x1="824.7127" x2="820.7473" y1="259.4143" y2="252.4663"/><line style="stroke:#181818;stroke-width:1.0;" x1="827.3183" x2="823.3528" y1="257.9273" y2="250.9792"/><line style="stroke:#181818;stroke-width:1.0;" x1="826.2041" x2="819.256" y1="253.9576" y2="257.923"/><line style="stroke:#181818;stroke-width:1.0;" x1="939.8763" x2="943.8517" y1="189.0883" y2="179.9125"/><line style="stroke:#181818;stroke-width:1.0;" x1="939.8763" x2="949.7983" y1="189.0883" y2="190.3355"/><line style="stroke:#181818;stroke-width:1.0;" x1="939.8763" x2="946.825" y1="189.0883" y2="185.124"/><ellipse cx="934.6648" cy="192.0616" fill="none" rx="4" ry="4" style="stroke:#181818;stroke-width:1.0;"/><text fill="#000000" font-family="sans-serif" font-size="13" lengthAdjust="spacing" textLength="23" x="864" y="211.0669">has</text></g><!--link user to certificate--><g id="link_user_certificate"><path codeLine="98" d="M198.912,437.452 C224.059,446.587 251.257,455.495 277,462 C535.748,527.384 849.793,560.2864 1005.591,573.5987 " fill="none" id="user-certificate" style="stroke:#181818;stroke-width:1.0;stroke-dasharray:7.0,7.0;"/><line style="stroke:#181818;stroke-width:1.0;" x1="193.5534" x2="196.3105" y1="439.7455" y2="432.2356"/><line style="stroke:#181818;stroke-width:1.0;" x1="196.3696" x2="199.1267" y1="440.7794" y2="433.2695"/><line style="stroke:#181818;stroke-width:1.0;" x1="198.6869" x2="191.177" y1="437.3691" y2="434.612"/><line style="stroke:#181818;stroke-width:1.0;" x1="1005.8286" x2="1014.3068" y1="573.6188" y2="568.3159"/><line style="stroke:#181818;stroke-width:1.0;" x1="1005.8286" x2="1013.2932" y1="573.6188" y2="580.2731"/><line style="stroke:#181818;stroke-width:1.0;" x1="1005.8286" x2="1013.8" y1="573.6188" y2="574.2945"/><ellipse cx="999.85" cy="573.112" fill="none" rx="4" ry="4" style="stroke:#181818;stroke-width:1.0;"/><text fill="#000000" font-family="sans-serif" font-size="13" lengthAdjust="spacing" textLength="97" x="507" y="506.0669">pay enrollment</text></g><!--link course to certificate--><g id="link_course_certificate"><path codeLine="99" d="M825.185,411.16 C857.449,441.606 894.697,473.633 932,499 C954.921,514.587 981.26,528.79 1006.291,540.835 " fill="none" id="course-certificate" style="stroke:#181818;stroke-width:1.0;stroke-dasharray:7.0,7.0;"/><line style="stroke:#181818;stroke-width:1.0;" x1="819.3664" x2="824.875" y1="411.151" y2="405.3496"/><line style="stroke:#181818;stroke-width:1.0;" x1="821.5419" x2="827.0505" y1="413.2167" y2="407.4153"/><line style="stroke:#181818;stroke-width:1.0;" x1="825.0214" x2="819.22" y1="411.0045" y2="405.496"/><line style="stroke:#181818;stroke-width:1.0;" x1="1006.4362" x2="1016.2382" y1="540.8994" y2="538.9192"/><line style="stroke:#181818;stroke-width:1.0;" x1="1006.4362" x2="1011.0818" y1="540.8994" y2="549.7548"/><line style="stroke:#181818;stroke-width:1.0;" x1="1006.4362" x2="1013.66" y1="540.8994" y2="544.337"/><ellipse cx="1001.0184" cy="538.3211" fill="none" rx="4" ry="4" style="stroke:#181818;stroke-width:1.0;"/><text fill="#000000" font-family="sans-serif" font-size="13" lengthAdjust="spacing" textLength="23" x="864" y="433.0669">has</text></g><!--SRC=[hLLTR-8m47pFh_0RlUhQ7n1LbH3GEzGxn0ltQhds5YmvtiXsk5Qa__tMV1J7a7Ag-WIPZ7PdPzQEWUV00ZAdbwl0b7OWWqPR51CRT7XbZGV7DiKrqwfaYyLqpExkve_tzyND3O5ML52ojN1o9HmzGoMqIO5QUFyNdJfYzGe3yiPrQDA12A2u22LJz2_e2WXkQdKAlxrhazWu3_tgY6GwyYIkmUMz5NZfT1sdBbc0bn1bEos1YmeRIwsrZLXqWYTzsCCZequ-D0fiu3BbQi-RMcAbxR9aJuW6XFtqc0QyHylzBfd-SNTsa4H27o9wpJowm6lqUZVTJbncIzwely7PQdjPgJE7vgPPfaQVn15UQtgUsAQw6WnTqDB0u3iR_D4ASF2ja6W3ENiIEAyTBXrf_SYAgZP0ddRSFu2y1YVXcDQxSVa4UUHxsDAIy7qgMcL0dFhJKODrQ0ozlxJQFSfw9padXoMDWnFMYmiBfkqQuxcGgBevOX3c_RHGd4yGOHz4Q3m5F5lylXhC9xFnTFOZ1ZmVJiVnTpISZIQ_9cFA-cic-eyh0sZFdhMaDrzdBhpGGkcaQPyyqh6zJzlszXOtX_khP2CdQ2_Fl3kkUib-2b_aw1kHs_POwCZPrcat-UMnesHWXxgdf5gohOn7DWATJcqV2rIdLhfe9NqU3ZjVnPEU5EnIIxRADAL1NgYJKBTr_W40]--></g></svg>